<svg version="1.1" id="Layer_1" xmlns="http://www.w3.org/2000/svg" xmlns:xlink="http://www.w3.org/1999/xlink" x="0px" y="0px"
	 width="100%" viewBox="0 0 1556 888" enable-background="new 0 0 1556 888" xml:space="preserve">
<path fill="#5E1B82" opacity="1.000000" stroke="none" 
	d="
M1131.000000,889.000000 
	C754.000000,889.000000 377.500000,889.000000 1.000000,889.000000 
	C1.000000,593.000000 1.000000,297.000000 1.000000,1.000000 
	C519.666687,1.000000 1038.333374,1.000000 1557.000000,1.000000 
	C1557.000000,297.000000 1557.000000,593.000000 1557.000000,889.000000 
	C1415.166626,889.000000 1273.333374,889.000000 1131.000000,889.000000 
M571.945862,667.015625 
	C567.292236,671.332764 562.638611,675.649902 557.368958,680.236877 
	C553.187561,686.800293 549.006104,693.363647 544.316223,700.402832 
	C536.356506,718.580139 535.229004,737.146973 542.198425,755.765503 
	C553.745728,786.613403 585.943848,810.534302 623.101074,807.036194 
	C638.611877,805.575928 652.163391,799.062744 664.072693,789.102112 
	C666.757690,786.856445 667.051208,784.400635 664.325928,781.937012 
	C661.366272,779.261658 658.163879,776.822144 655.433960,773.933350 
	C651.879395,770.171814 648.694519,770.269897 644.553040,773.203613 
	C616.471191,793.096497 578.623047,781.845947 565.969360,749.842163 
	C559.440308,733.328613 560.826477,717.308777 570.450134,701.582642 
	C573.655762,697.733154 576.861450,693.883728 580.710144,689.814941 
	C599.557373,675.383362 619.514038,672.838196 640.851135,684.047424 
	C653.613647,690.752014 653.573303,690.604126 663.830505,679.661011 
	C666.995605,676.284302 666.761963,673.718384 663.278442,670.979065 
	C652.238342,662.297546 640.034851,656.224121 625.188171,653.927185 
	C624.030884,653.819153 622.872803,653.719727 621.716492,653.601990 
	C603.654358,651.762573 587.195374,655.870911 571.945862,667.015625 
M370.066040,768.714966 
	C380.315369,786.135803 394.768524,798.439148 414.232910,804.337524 
	C423.912018,807.270630 433.783936,809.474915 444.878052,807.144470 
	C461.984009,805.945435 476.520905,798.685669 488.901276,787.330139 
	C499.666840,777.455811 507.925537,765.709839 511.621460,750.469360 
	C514.783386,739.380554 515.322388,728.093140 512.973328,716.876587 
	C508.878204,697.322632 499.471008,680.908447 482.627808,668.455933 
	C465.441803,655.935303 446.397644,650.633911 425.280548,654.221375 
	C387.262756,660.680115 355.515869,694.093079 359.983307,738.616821 
	C361.035950,749.107483 363.981171,759.119202 370.066040,768.714966 
M783.118958,60.115162 
	C770.011963,60.713535 756.900269,61.226837 743.800293,61.951969 
	C738.528015,62.243805 735.704590,65.544807 735.083740,70.614563 
	C734.518250,75.232544 734.281433,79.889992 733.855652,84.525993 
	C732.791748,96.112915 731.767090,107.704056 730.593018,119.279953 
	C730.109619,124.046608 727.378113,126.704407 722.742554,128.479477 
	C708.658691,133.872635 694.721436,139.662872 680.842896,145.570526 
	C676.263000,147.520004 672.546936,147.736160 668.454895,144.309509 
	C656.328186,134.154648 644.038269,124.189224 631.643677,114.362259 
	C625.632690,109.596474 623.110962,109.872337 617.057678,114.631935 
	C602.706848,125.915619 590.128235,138.950943 578.875488,153.290161 
	C574.055969,159.431595 573.848083,161.646698 578.769226,167.837265 
	C587.888733,179.309036 597.184998,190.645523 606.623535,201.856522 
	C611.939087,208.170334 612.275757,210.536118 608.982178,218.039261 
	C603.576172,230.354721 598.273560,242.728027 593.407227,255.263214 
	C590.554016,262.612640 588.630676,264.304108 580.865417,264.932648 
	C565.954956,266.139526 551.056885,267.545471 536.183716,269.147430 
	C529.309021,269.887878 526.376221,272.783813 526.050720,279.329254 
	C525.433350,291.742798 524.884399,304.184570 525.067932,316.603394 
	C525.170227,323.528717 526.759888,330.437805 527.762085,337.342163 
	C528.454529,342.112335 531.305298,344.629700 536.104980,345.132904 
	C551.641052,346.761597 567.161255,348.549316 582.708862,350.056244 
	C587.934937,350.562744 591.086182,352.794769 593.052002,357.832520 
	C598.418762,371.585663 603.932983,385.299072 609.998291,398.753510 
	C612.595459,404.514801 612.426086,408.864441 608.335632,413.772827 
	C598.739807,425.287689 589.438293,437.053162 580.220459,448.875305 
	C576.088928,454.174103 576.235535,456.550812 580.201843,461.842346 
	C591.254456,476.587769 604.142944,489.561615 618.651306,500.891022 
	C626.210999,506.794312 628.589966,506.470337 636.043518,500.262573 
	C647.562378,490.669037 659.207458,481.227112 670.746277,471.657257 
	C673.806458,469.119232 676.953491,468.020599 680.852173,469.589783 
	C692.386353,474.232117 703.957886,478.781616 715.511902,483.374725 
	C718.444153,484.540405 721.603394,485.360504 724.218872,487.028534 
	C726.427673,488.437256 729.086487,490.580597 729.639099,492.860962 
	C730.995300,498.457672 731.317627,504.313934 731.935791,510.078644 
	C733.157715,521.474670 734.259949,532.883606 735.489807,544.278748 
	C736.058899,549.552246 739.488953,552.068481 744.399048,552.925354 
	C763.965271,556.340210 783.472046,555.283447 802.967346,552.205933 
	C807.959839,551.417725 810.700623,548.800415 811.147949,543.718750 
	C812.459106,528.823547 813.985229,513.945068 815.094116,499.035278 
	C815.643738,491.645752 818.167114,487.382355 823.669128,485.184265 
	C837.071106,479.830139 850.427673,474.354462 863.701965,468.692017 
	C870.273682,465.888702 873.190369,466.335449 878.643311,470.899078 
	C890.518494,480.837646 902.517700,490.632233 914.619080,500.294250 
	C919.554016,504.234406 922.722168,503.795837 927.519104,499.792419 
	C942.026611,487.684448 954.850830,473.993439 966.333130,459.007080 
	C970.954468,452.975494 971.148621,450.742401 966.431641,444.961212 
	C955.902710,432.056885 945.325439,419.190369 934.615784,406.436218 
	C931.973938,403.290039 931.681030,400.638672 933.828735,397.043945 
	C940.941223,385.139496 946.633667,372.556335 949.574951,358.950256 
	C950.816467,353.207092 954.231689,350.767090 959.554382,350.265991 
	C974.876587,348.823578 990.198425,347.362030 1005.538147,346.127838 
	C1014.140503,345.435699 1016.867737,342.670532 1017.135254,333.884796 
	C1017.275452,329.279205 1018.030273,324.689484 1018.112732,320.085571 
	C1018.272583,311.155487 1018.295105,302.217285 1018.096863,293.288605 
	C1017.979004,287.978546 1017.452515,282.667328 1016.887756,277.380341 
	C1016.355591,272.398743 1013.345093,269.563660 1008.410339,269.073547 
	C993.689758,267.611420 978.972534,266.072723 964.225159,264.937744 
	C954.312195,264.174835 952.581787,262.837555 949.056213,253.595474 
	C944.679260,242.121582 940.123657,230.681976 934.909180,219.573074 
	C931.278687,211.838608 930.914734,209.721893 936.378967,202.918930 
	C945.767700,191.230240 955.251465,179.616257 964.512024,167.826889 
	C969.422974,161.574783 969.170837,159.167740 964.193604,152.840652 
	C953.114563,138.756683 940.278931,126.445198 926.293457,115.304680 
	C919.035034,109.522743 916.107849,109.707993 908.842590,115.856750 
	C897.911377,125.108040 886.955505,134.330551 875.963928,143.510040 
	C870.456360,148.109726 867.486389,147.927292 860.941833,144.956467 
	C849.013123,139.541611 836.924500,134.451492 824.737427,129.644836 
	C818.513123,127.189957 816.729980,125.216492 816.079224,118.462288 
	C814.581055,102.913719 813.008301,87.368484 811.140259,71.861107 
	C810.248718,64.459312 807.872070,62.652061 800.406921,61.942425 
	C794.946960,61.423401 789.493103,60.840195 783.118958,60.115162 
M1054.067261,763.444031 
	C1069.745483,795.216858 1102.378418,812.954285 1136.728027,806.730957 
	C1184.562744,798.064392 1215.139282,746.971252 1194.855347,700.912659 
	C1181.623047,670.865906 1157.871460,654.302734 1125.265259,653.233643 
	C1103.456177,652.518494 1084.511963,661.372803 1068.351074,676.932190 
	C1045.485840,698.946472 1040.709106,736.552551 1054.067261,763.444031 
M1334.926758,765.622253 
	C1332.440674,761.100769 1329.922485,756.596619 1327.476807,752.053406 
	C1324.458984,746.447266 1325.203857,745.414673 1330.602539,741.729309 
	C1336.289062,737.847595 1342.047119,733.690247 1346.593628,728.599304 
	C1355.733398,718.365234 1355.569092,705.468933 1355.190308,692.653381 
	C1354.638672,673.989014 1339.419067,655.368835 1320.826538,654.245667 
	C1295.094360,652.691162 1269.235352,653.225464 1243.430298,652.901550 
	C1240.353149,652.862915 1238.894409,654.616699 1238.876343,657.629089 
	C1238.854370,661.295471 1238.834473,664.961914 1238.838867,668.628357 
	C1238.848999,676.897583 1239.092285,677.156067 1247.186523,677.160767 
	C1268.019531,677.172852 1288.852783,677.102478 1309.685303,677.198547 
	C1320.928345,677.250366 1328.788696,683.126282 1330.840454,692.604065 
	C1333.820679,706.369995 1325.932739,720.695862 1308.776611,720.030762 
	C1287.642090,719.211304 1266.451050,719.914978 1245.285522,719.781921 
	C1240.564941,719.752258 1238.541870,721.536621 1238.798828,726.275330 
	C1239.006104,730.097351 1239.007690,733.948669 1238.798828,737.770508 
	C1238.537476,742.551270 1240.651001,744.269958 1245.331665,744.218201 
	C1259.663086,744.059875 1273.998779,744.288269 1288.329590,744.109009 
	C1294.134033,744.036499 1297.916382,746.166687 1300.675659,751.436890 
	C1309.630005,768.538330 1318.989746,785.427063 1328.071533,802.462646 
	C1330.167603,806.394287 1332.860107,808.563843 1337.552246,808.204651 
	C1341.528931,807.900269 1345.547485,808.161011 1349.547241,808.137268 
	C1356.434204,808.096375 1357.248413,806.978210 1354.057007,800.957031 
	C1347.899780,789.340820 1341.525146,777.839905 1334.926758,765.622253 
M114.420479,657.889954 
	C98.814232,664.122620 86.222206,674.099915 76.897438,688.124451 
	C65.512299,705.247803 61.142403,723.968445 64.846893,744.247070 
	C68.015633,761.592834 77.259445,775.474976 89.982681,787.498169 
	C116.910225,812.943909 161.977936,813.908936 189.584030,789.357117 
	C192.731567,786.557739 192.585632,784.051208 189.672028,781.412476 
	C186.711487,778.731262 183.619690,776.193909 180.683304,773.487305 
	C177.182632,770.260681 174.020493,770.217407 170.115524,773.243042 
	C158.338440,782.368347 144.684265,784.820374 130.390762,782.182495 
	C102.644104,777.061646 82.861519,750.143494 88.882973,719.236084 
	C95.588127,684.819275 135.595459,666.015137 167.131958,684.135864 
	C170.888382,686.294250 175.356033,689.780884 178.846542,689.137817 
	C182.577194,688.450500 185.639389,683.697937 188.814865,680.540405 
	C193.222382,676.157776 193.098251,673.763733 188.086334,670.093628 
	C165.868057,653.824036 141.803085,648.108276 114.420479,657.889954 
M983.627869,759.073059 
	C997.147339,732.339294 1010.646667,705.595337 1024.200317,678.878906 
	C1027.662964,672.053406 1031.429688,665.379883 1034.804443,658.512573 
	C1036.807495,654.436829 1035.830200,653.002625 1031.314697,652.895935 
	C1025.984985,652.769958 1020.633240,653.121765 1015.322083,652.781860 
	C1010.073242,652.446045 1007.255249,654.570068 1004.961426,659.321960 
	C991.722351,686.748413 978.196411,714.036926 964.616943,741.297119 
	C963.602051,743.334412 961.409485,744.784973 959.764343,746.508301 
	C958.118042,744.765991 955.970520,743.282227 954.914734,741.235291 
	C950.950134,733.549072 947.323181,725.687988 943.603638,717.876221 
	C934.519958,698.798767 925.304565,679.781494 916.477295,660.585938 
	C913.929199,655.044861 910.742371,652.039917 904.320190,652.763855 
	C900.041687,653.246216 895.664673,652.833679 891.332092,652.862671 
	C884.716370,652.906921 883.951660,653.990967 886.789185,659.760559 
	C909.557556,706.055725 932.346741,752.340637 955.213135,798.587402 
	C956.110107,800.401550 957.851624,801.798157 959.199585,803.389343 
	C960.740845,801.784729 962.769226,800.430786 963.744812,798.535034 
	C970.370544,785.659790 976.774292,772.670166 983.627869,759.073059 
M238.837952,792.486206 
	C238.839005,795.317932 238.820831,798.149841 238.844986,800.981323 
	C238.900345,807.469238 239.533554,808.142639 246.036926,808.149719 
	C268.523865,808.174377 291.010864,808.162109 313.497833,808.161255 
	C321.159973,808.160950 328.822998,808.080322 336.483856,808.177917 
	C340.502594,808.229065 342.280823,806.470947 342.154755,802.454224 
	C342.029388,798.460510 342.168701,794.459351 342.124695,790.462219 
	C342.060608,784.646606 341.323395,783.886841 335.381470,783.877441 
	C314.893402,783.844910 294.405212,783.868896 273.917084,783.856628 
	C264.155914,783.850830 263.168823,782.856140 263.166473,772.979187 
	C263.157684,736.167175 263.162842,699.355164 263.160004,662.543152 
	C263.159882,660.877686 263.141602,659.212036 263.116577,657.546692 
	C263.070953,654.508972 261.545471,652.922913 258.483765,652.902344 
	C254.652924,652.876587 250.821869,652.858765 246.990952,652.865723 
	C239.170410,652.880066 238.844284,653.194458 238.842850,661.066772 
	C238.834930,704.541565 238.838394,748.016418 238.837952,792.486206 
M746.190125,785.333435 
	C751.097290,791.640503 755.917603,798.018616 760.971802,804.205566 
	C762.259766,805.782288 764.239868,807.745178 765.987000,807.832520 
	C774.126282,808.240051 782.296204,808.125854 790.453430,808.036377 
	C793.257935,808.005615 793.874023,806.300720 792.571411,803.973206 
	C791.927246,802.822144 791.024414,801.811829 790.207642,800.761963 
	C773.237549,778.949951 756.230103,757.166687 739.309814,735.316101 
	C734.444641,729.033325 734.496155,727.719177 739.539001,721.418823 
	C744.947632,714.661438 750.540710,708.052063 756.034729,701.362793 
	C767.656555,687.212280 779.299316,673.078552 790.824097,658.849304 
	C791.853394,657.578552 792.084412,655.661133 792.686157,654.044006 
	C791.150391,653.641785 789.620850,652.923096 788.077698,652.892456 
	C781.584717,652.763550 775.055298,652.462585 768.607239,653.016541 
	C765.798889,653.257874 762.313354,654.706116 760.565552,656.800049 
	C742.431396,678.525024 724.565674,700.474548 706.681458,722.407410 
	C701.953064,728.206299 701.998352,728.598633 706.466675,734.340820 
	C719.553650,751.158630 732.673950,767.950439 746.190125,785.333435 
M1402.329834,751.185547 
	C1404.384277,753.804016 1406.446167,756.416748 1408.492065,759.041931 
	C1419.744385,773.480713 1431.049927,787.878601 1442.206543,802.390869 
	C1445.401978,806.547363 1449.092163,808.681396 1454.534058,808.239685 
	C1459.826782,807.810059 1465.183960,808.234863 1470.507690,808.093018 
	C1472.231079,808.047119 1473.938477,807.395386 1475.653198,807.020691 
	C1475.033203,805.246582 1474.810425,803.170593 1473.728882,801.747253 
	C1466.379517,792.075317 1458.843750,782.545349 1451.378662,772.961304 
	C1441.357178,760.095276 1431.431396,747.153259 1421.280640,734.390137 
	C1417.894287,730.132324 1417.844727,726.382812 1421.477417,722.450684 
	C1422.153320,721.719360 1422.723999,720.891663 1423.356934,720.119690 
	C1440.131470,699.659058 1456.925659,679.214722 1473.636108,658.701965 
	C1474.582275,657.540344 1474.841797,655.819397 1475.421021,654.358765 
	C1473.926636,653.852051 1472.441650,652.943176 1470.936279,652.908020 
	C1464.280640,652.752441 1457.597412,652.539673 1450.971069,653.009827 
	C1448.437988,653.189575 1445.254272,654.494324 1443.684204,656.381958 
	C1425.169312,678.641357 1406.941650,701.139404 1388.534424,723.488953 
	C1385.704224,726.925232 1385.726196,729.904602 1388.417969,733.278992 
	C1392.983765,739.002625 1397.423706,744.826721 1402.329834,751.185547 
M871.950928,713.604370 
	C863.018921,695.758545 853.947144,677.980408 845.243286,660.024048 
	C842.757446,654.895569 839.683228,652.164612 833.728455,652.771362 
	C829.443970,653.207947 825.079041,652.840210 820.750122,652.860718 
	C813.938477,652.893188 813.269165,653.908264 816.366150,660.019165 
	C825.536438,678.113647 834.803101,696.159180 843.976929,714.251831 
	C858.340088,742.578918 872.657898,770.929077 886.996521,799.268616 
	C887.371948,800.010620 887.714233,800.776245 888.160339,801.474426 
	C890.285217,804.799744 891.957947,804.857666 893.881714,801.317261 
	C896.738586,796.059631 899.121521,790.541260 902.049561,785.326660 
	C904.330688,781.264221 904.109924,777.695129 902.017456,773.588928 
	C891.975159,753.882751 882.152771,734.064575 871.950928,713.604370 
z"/>
<path fill="#FFFEFF" opacity="1.000000" stroke="none" 
	d="
M783.577759,60.200378 
	C789.493103,60.840195 794.946960,61.423401 800.406921,61.942425 
	C807.872070,62.652061 810.248718,64.459312 811.140259,71.861107 
	C813.008301,87.368484 814.581055,102.913719 816.079224,118.462288 
	C816.729980,125.216492 818.513123,127.189957 824.737427,129.644836 
	C836.924500,134.451492 849.013123,139.541611 860.941833,144.956467 
	C867.486389,147.927292 870.456360,148.109726 875.963928,143.510040 
	C886.955505,134.330551 897.911377,125.108040 908.842590,115.856750 
	C916.107849,109.707993 919.035034,109.522743 926.293457,115.304680 
	C940.278931,126.445198 953.114563,138.756683 964.193604,152.840652 
	C969.170837,159.167740 969.422974,161.574783 964.512024,167.826889 
	C955.251465,179.616257 945.767700,191.230240 936.378967,202.918930 
	C930.914734,209.721893 931.278687,211.838608 934.909180,219.573074 
	C940.123657,230.681976 944.679260,242.121582 949.056213,253.595474 
	C952.581787,262.837555 954.312195,264.174835 964.225159,264.937744 
	C978.972534,266.072723 993.689758,267.611420 1008.410339,269.073547 
	C1013.345093,269.563660 1016.355591,272.398743 1016.887756,277.380341 
	C1017.452515,282.667328 1017.979004,287.978546 1018.096863,293.288605 
	C1018.295105,302.217285 1018.272583,311.155487 1018.112732,320.085571 
	C1018.030273,324.689484 1017.275452,329.279205 1017.135254,333.884796 
	C1016.867737,342.670532 1014.140503,345.435699 1005.538147,346.127838 
	C990.198425,347.362030 974.876587,348.823578 959.554382,350.265991 
	C954.231689,350.767090 950.816467,353.207092 949.574951,358.950256 
	C946.633667,372.556335 940.941223,385.139496 933.828735,397.043945 
	C931.681030,400.638672 931.973938,403.290039 934.615784,406.436218 
	C945.325439,419.190369 955.902710,432.056885 966.431641,444.961212 
	C971.148621,450.742401 970.954468,452.975494 966.333130,459.007080 
	C954.850830,473.993439 942.026611,487.684448 927.519104,499.792419 
	C922.722168,503.795837 919.554016,504.234406 914.619080,500.294250 
	C902.517700,490.632233 890.518494,480.837646 878.643311,470.899078 
	C873.190369,466.335449 870.273682,465.888702 863.701965,468.692017 
	C850.427673,474.354462 837.071106,479.830139 823.669128,485.184265 
	C818.167114,487.382355 815.643738,491.645752 815.094116,499.035278 
	C813.985229,513.945068 812.459106,528.823547 811.147949,543.718750 
	C810.700623,548.800415 807.959839,551.417725 802.967346,552.205933 
	C783.472046,555.283447 763.965271,556.340210 744.399048,552.925354 
	C739.488953,552.068481 736.058899,549.552246 735.489807,544.278748 
	C734.259949,532.883606 733.157715,521.474670 731.935791,510.078644 
	C731.317627,504.313934 730.995300,498.457672 729.639099,492.860962 
	C729.086487,490.580597 726.427673,488.437256 724.218872,487.028534 
	C721.603394,485.360504 718.444153,484.540405 715.511902,483.374725 
	C703.957886,478.781616 692.386353,474.232117 680.852173,469.589783 
	C676.953491,468.020599 673.806458,469.119232 670.746277,471.657257 
	C659.207458,481.227112 647.562378,490.669037 636.043518,500.262573 
	C628.589966,506.470337 626.210999,506.794312 618.651306,500.891022 
	C604.142944,489.561615 591.254456,476.587769 580.201843,461.842346 
	C576.235535,456.550812 576.088928,454.174103 580.220459,448.875305 
	C589.438293,437.053162 598.739807,425.287689 608.335632,413.772827 
	C612.426086,408.864441 612.595459,404.514801 609.998291,398.753510 
	C603.932983,385.299072 598.418762,371.585663 593.052002,357.832520 
	C591.086182,352.794769 587.934937,350.562744 582.708862,350.056244 
	C567.161255,348.549316 551.641052,346.761597 536.104980,345.132904 
	C531.305298,344.629700 528.454529,342.112335 527.762085,337.342163 
	C526.759888,330.437805 525.170227,323.528717 525.067932,316.603394 
	C524.884399,304.184570 525.433350,291.742798 526.050720,279.329254 
	C526.376221,272.783813 529.309021,269.887878 536.183716,269.147430 
	C551.056885,267.545471 565.954956,266.139526 580.865417,264.932648 
	C588.630676,264.304108 590.554016,262.612640 593.407227,255.263214 
	C598.273560,242.728027 603.576172,230.354721 608.982178,218.039261 
	C612.275757,210.536118 611.939087,208.170334 606.623535,201.856522 
	C597.184998,190.645523 587.888733,179.309036 578.769226,167.837265 
	C573.848083,161.646698 574.055969,159.431595 578.875488,153.290161 
	C590.128235,138.950943 602.706848,125.915619 617.057678,114.631935 
	C623.110962,109.872337 625.632690,109.596474 631.643677,114.362259 
	C644.038269,124.189224 656.328186,134.154648 668.454895,144.309509 
	C672.546936,147.736160 676.263000,147.520004 680.842896,145.570526 
	C694.721436,139.662872 708.658691,133.872635 722.742554,128.479477 
	C727.378113,126.704407 730.109619,124.046608 730.593018,119.279953 
	C731.767090,107.704056 732.791748,96.112915 733.855652,84.525993 
	C734.281433,79.889992 734.518250,75.232544 735.083740,70.614563 
	C735.704590,65.544807 738.528015,62.243805 743.800293,61.951969 
	C756.900269,61.226837 770.011963,60.713535 783.577759,60.200378 
M748.483521,219.992340 
	C708.100159,230.742661 676.588013,272.183563 683.885986,319.874878 
	C691.414307,369.070923 737.930481,404.967957 791.546204,394.234894 
	C841.220154,384.290955 871.810730,335.250366 860.305969,285.560150 
	C848.854797,236.101685 799.603516,207.057571 748.483521,219.992340 
z"/>
<path fill="#FEFDFE" opacity="1.000000" stroke="none" 
	d="
M1053.917480,763.097290 
	C1040.709106,736.552551 1045.485840,698.946472 1068.351074,676.932190 
	C1084.511963,661.372803 1103.456177,652.518494 1125.265259,653.233643 
	C1157.871460,654.302734 1181.623047,670.865906 1194.855347,700.912659 
	C1215.139282,746.971252 1184.562744,798.064392 1136.728027,806.730957 
	C1102.378418,812.954285 1069.745483,795.216858 1053.917480,763.097290 
M1120.623291,678.050964 
	C1118.141968,678.219238 1115.596313,678.087463 1113.189209,678.602783 
	C1091.753906,683.191162 1073.996704,701.996216 1071.189575,722.925537 
	C1068.256348,744.795105 1078.674194,765.431152 1098.639526,776.220886 
	C1117.620972,786.478821 1136.415527,785.865601 1153.959473,772.980469 
	C1171.429932,760.149292 1178.999634,742.394409 1175.496704,721.054504 
	C1171.614624,697.405334 1148.056274,675.716736 1120.623291,678.050964 
z"/>
<path fill="#FEFEFE" opacity="1.000000" stroke="none" 
	d="
M1335.083740,765.956665 
	C1341.525146,777.839905 1347.899780,789.340820 1354.057007,800.957031 
	C1357.248413,806.978210 1356.434204,808.096375 1349.547241,808.137268 
	C1345.547485,808.161011 1341.528931,807.900269 1337.552246,808.204651 
	C1332.860107,808.563843 1330.167603,806.394287 1328.071533,802.462646 
	C1318.989746,785.427063 1309.630005,768.538330 1300.675659,751.436890 
	C1297.916382,746.166687 1294.134033,744.036499 1288.329590,744.109009 
	C1273.998779,744.288269 1259.663086,744.059875 1245.331665,744.218201 
	C1240.651001,744.269958 1238.537476,742.551270 1238.798828,737.770508 
	C1239.007690,733.948669 1239.006104,730.097351 1238.798828,726.275330 
	C1238.541870,721.536621 1240.564941,719.752258 1245.285522,719.781921 
	C1266.451050,719.914978 1287.642090,719.211304 1308.776611,720.030762 
	C1325.932739,720.695862 1333.820679,706.369995 1330.840454,692.604065 
	C1328.788696,683.126282 1320.928345,677.250366 1309.685303,677.198547 
	C1288.852783,677.102478 1268.019531,677.172852 1247.186523,677.160767 
	C1239.092285,677.156067 1238.848999,676.897583 1238.838867,668.628357 
	C1238.834473,664.961914 1238.854370,661.295471 1238.876343,657.629089 
	C1238.894409,654.616699 1240.353149,652.862915 1243.430298,652.901550 
	C1269.235352,653.225464 1295.094360,652.691162 1320.826538,654.245667 
	C1339.419067,655.368835 1354.638672,673.989014 1355.190308,692.653381 
	C1355.569092,705.468933 1355.733398,718.365234 1346.593628,728.599304 
	C1342.047119,733.690247 1336.289062,737.847595 1330.602539,741.729309 
	C1325.203857,745.414673 1324.458984,746.447266 1327.476807,752.053406 
	C1329.922485,756.596619 1332.440674,761.100769 1335.083740,765.956665 
z"/>
<path fill="#FDFDFE" opacity="1.000000" stroke="none" 
	d="
M114.788834,657.763672 
	C141.803085,648.108276 165.868057,653.824036 188.086334,670.093628 
	C193.098251,673.763733 193.222382,676.157776 188.814865,680.540405 
	C185.639389,683.697937 182.577194,688.450500 178.846542,689.137817 
	C175.356033,689.780884 170.888382,686.294250 167.131958,684.135864 
	C135.595459,666.015137 95.588127,684.819275 88.882973,719.236084 
	C82.861519,750.143494 102.644104,777.061646 130.390762,782.182495 
	C144.684265,784.820374 158.338440,782.368347 170.115524,773.243042 
	C174.020493,770.217407 177.182632,770.260681 180.683304,773.487305 
	C183.619690,776.193909 186.711487,778.731262 189.672028,781.412476 
	C192.585632,784.051208 192.731567,786.557739 189.584030,789.357117 
	C161.977936,813.908936 116.910225,812.943909 89.982681,787.498169 
	C77.259445,775.474976 68.015633,761.592834 64.846893,744.247070 
	C61.142403,723.968445 65.512299,705.247803 76.897438,688.124451 
	C86.222206,674.099915 98.814232,664.122620 114.788834,657.763672 
z"/>
<path fill="#FEFDFE" opacity="1.000000" stroke="none" 
	d="
M983.438782,759.395264 
	C976.774292,772.670166 970.370544,785.659790 963.744812,798.535034 
	C962.769226,800.430786 960.740845,801.784729 959.199585,803.389343 
	C957.851624,801.798157 956.110107,800.401550 955.213135,798.587402 
	C932.346741,752.340637 909.557556,706.055725 886.789185,659.760559 
	C883.951660,653.990967 884.716370,652.906921 891.332092,652.862671 
	C895.664673,652.833679 900.041687,653.246216 904.320190,652.763855 
	C910.742371,652.039917 913.929199,655.044861 916.477295,660.585938 
	C925.304565,679.781494 934.519958,698.798767 943.603638,717.876221 
	C947.323181,725.687988 950.950134,733.549072 954.914734,741.235291 
	C955.970520,743.282227 958.118042,744.765991 959.764282,746.508301 
	C961.409485,744.784973 963.602051,743.334412 964.616943,741.297119 
	C978.196411,714.036926 991.722351,686.748413 1004.961426,659.321960 
	C1007.255249,654.570068 1010.073242,652.446045 1015.322083,652.781860 
	C1020.633240,653.121765 1025.984985,652.769958 1031.314697,652.895935 
	C1035.830200,653.002625 1036.807495,654.436829 1034.804443,658.512573 
	C1031.429688,665.379883 1027.662964,672.053406 1024.200317,678.878906 
	C1010.646667,705.595337 997.147339,732.339294 983.438782,759.395264 
z"/>
<path fill="#FEFDFE" opacity="1.000000" stroke="none" 
	d="
M511.138489,751.043457 
	C507.925537,765.709839 499.666840,777.455811 488.901276,787.330139 
	C476.520905,798.685669 461.984009,805.945435 444.542419,806.748779 
	C450.446289,801.958008 450.986450,796.202454 448.437286,789.531677 
	C447.570587,787.263733 447.289612,784.771973 447.061310,782.219360 
	C453.831116,779.327698 460.280609,776.599121 467.038147,774.050293 
	C468.209473,774.996826 469.346558,775.607300 469.889191,776.557251 
	C472.406189,780.964050 475.166107,780.086243 478.259003,777.249634 
	C480.570496,775.129639 482.853638,772.917786 485.433899,771.165833 
	C489.483673,768.416138 489.089294,766.027893 485.691895,763.042419 
	C484.122040,761.662842 483.156342,759.595825 481.961426,757.487549 
	C487.685150,746.544739 490.964508,735.660889 489.151855,723.269958 
	C484.124146,688.901428 444.996796,665.381470 411.892883,684.105286 
	C379.092010,702.657776 372.984131,747.533142 405.225464,772.054871 
	C412.357452,777.479187 420.481689,780.642639 429.135590,783.145752 
	C429.651093,786.070557 430.119385,788.603027 430.746826,791.995972 
	C427.553619,790.763245 425.272278,789.900452 423.004150,789.004089 
	C405.317871,782.014343 387.634064,775.018188 369.949493,768.024048 
	C363.981171,759.119202 361.035950,749.107483 359.983307,738.616821 
	C355.515869,694.093079 387.262756,660.680115 425.280548,654.221375 
	C446.397644,650.633911 465.441803,655.935303 482.622742,669.046753 
	C482.308441,671.659973 481.385132,673.812622 481.782501,675.684998 
	C487.269653,701.537659 492.928833,727.353760 498.586761,753.169922 
	C498.918152,754.682190 499.598785,756.117920 500.174805,757.753784 
	C504.216400,755.280090 507.677460,753.161743 511.138489,751.043457 
z"/>
<path fill="#FFFFFF" opacity="1.000000" stroke="none" 
	d="
M238.837952,791.988708 
	C238.838394,748.016418 238.834930,704.541565 238.842850,661.066772 
	C238.844284,653.194458 239.170410,652.880066 246.990952,652.865723 
	C250.821869,652.858765 254.652924,652.876587 258.483765,652.902344 
	C261.545471,652.922913 263.070953,654.508972 263.116577,657.546692 
	C263.141602,659.212036 263.159882,660.877686 263.160004,662.543152 
	C263.162842,699.355164 263.157684,736.167175 263.166473,772.979187 
	C263.168823,782.856140 264.155914,783.850830 273.917084,783.856628 
	C294.405212,783.868896 314.893402,783.844910 335.381470,783.877441 
	C341.323395,783.886841 342.060608,784.646606 342.124695,790.462219 
	C342.168701,794.459351 342.029388,798.460510 342.154755,802.454224 
	C342.280823,806.470947 340.502594,808.229065 336.483856,808.177917 
	C328.822998,808.080322 321.159973,808.160950 313.497833,808.161255 
	C291.010864,808.162109 268.523865,808.174377 246.036926,808.149719 
	C239.533554,808.142639 238.900345,807.469238 238.844986,800.981323 
	C238.820831,798.149841 238.839005,795.317932 238.837952,791.988708 
z"/>
<path fill="#FDFDFE" opacity="1.000000" stroke="none" 
	d="
M745.985718,785.042969 
	C732.673950,767.950439 719.553650,751.158630 706.466675,734.340820 
	C701.998352,728.598633 701.953064,728.206299 706.681458,722.407410 
	C724.565674,700.474548 742.431396,678.525024 760.565552,656.800049 
	C762.313354,654.706116 765.798889,653.257874 768.607239,653.016541 
	C775.055298,652.462585 781.584717,652.763550 788.077698,652.892456 
	C789.620850,652.923096 791.150391,653.641785 792.686157,654.044006 
	C792.084412,655.661133 791.853394,657.578552 790.824097,658.849304 
	C779.299316,673.078552 767.656555,687.212280 756.034729,701.362793 
	C750.540710,708.052063 744.947632,714.661438 739.539001,721.418823 
	C734.496155,727.719177 734.444641,729.033325 739.309814,735.316101 
	C756.230103,757.166687 773.237549,778.949951 790.207642,800.761963 
	C791.024414,801.811829 791.927246,802.822144 792.571411,803.973206 
	C793.874023,806.300720 793.257935,808.005615 790.453430,808.036377 
	C782.296204,808.125854 774.126282,808.240051 765.987000,807.832520 
	C764.239868,807.745178 762.259766,805.782288 760.971802,804.205566 
	C755.917603,798.018616 751.097290,791.640503 745.985718,785.042969 
z"/>
<path fill="#FDFDFE" opacity="1.000000" stroke="none" 
	d="
M1402.123291,750.897095 
	C1397.423706,744.826721 1392.983765,739.002625 1388.417969,733.278992 
	C1385.726196,729.904602 1385.704224,726.925232 1388.534424,723.488953 
	C1406.941650,701.139404 1425.169312,678.641357 1443.684204,656.381958 
	C1445.254272,654.494324 1448.437988,653.189575 1450.971069,653.009827 
	C1457.597412,652.539673 1464.280640,652.752441 1470.936279,652.908020 
	C1472.441650,652.943176 1473.926636,653.852051 1475.421021,654.358765 
	C1474.841797,655.819397 1474.582275,657.540344 1473.636108,658.701965 
	C1456.925659,679.214722 1440.131470,699.659058 1423.356934,720.119690 
	C1422.723999,720.891663 1422.153320,721.719360 1421.477417,722.450684 
	C1417.844727,726.382812 1417.894287,730.132324 1421.280640,734.390137 
	C1431.431396,747.153259 1441.357178,760.095276 1451.378662,772.961304 
	C1458.843750,782.545349 1466.379517,792.075317 1473.728882,801.747253 
	C1474.810425,803.170593 1475.033203,805.246582 1475.653198,807.020752 
	C1473.938477,807.395386 1472.231079,808.047119 1470.507690,808.093018 
	C1465.183960,808.234863 1459.826782,807.810059 1454.534058,808.239685 
	C1449.092163,808.681396 1445.401978,806.547363 1442.206543,802.390869 
	C1431.049927,787.878601 1419.744385,773.480713 1408.492065,759.041931 
	C1406.446167,756.416748 1404.384277,753.804016 1402.123291,750.897095 
z"/>
<path fill="#FEFDFE" opacity="1.000000" stroke="none" 
	d="
M569.922974,702.006348 
	C560.826477,717.308777 559.440308,733.328613 565.969360,749.842163 
	C578.623047,781.845947 616.471191,793.096497 644.553040,773.203613 
	C648.694519,770.269897 651.879395,770.171814 655.433960,773.933350 
	C658.163879,776.822144 661.366272,779.261658 664.325928,781.937012 
	C667.051208,784.400635 666.757690,786.856445 664.072693,789.102112 
	C652.163391,799.062744 638.611877,805.575928 623.101074,807.036194 
	C585.943848,810.534302 553.745728,786.613403 542.198425,755.765503 
	C535.229004,737.146973 536.356506,718.580139 544.947510,700.162659 
	C549.920776,701.050293 554.375732,701.870483 558.566101,703.410522 
	C561.522217,704.497009 564.003601,705.600037 566.719116,703.035889 
	C567.455017,702.341064 568.837341,702.330811 569.922974,702.006348 
z"/>
<path fill="#FEFDFE" opacity="1.000000" stroke="none" 
	d="
M872.101562,713.945312 
	C882.152771,734.064575 891.975159,753.882751 902.017456,773.588928 
	C904.109924,777.695129 904.330688,781.264221 902.049561,785.326660 
	C899.121521,790.541260 896.738586,796.059631 893.881714,801.317261 
	C891.957947,804.857666 890.285217,804.799744 888.160339,801.474426 
	C887.714233,800.776245 887.371948,800.010620 886.996521,799.268616 
	C872.657898,770.929077 858.340088,742.578918 843.976929,714.251831 
	C834.803101,696.159180 825.536438,678.113647 816.366150,660.019165 
	C813.269165,653.908264 813.938477,652.893188 820.750122,652.860718 
	C825.079041,652.840210 829.443970,653.207947 833.728455,652.771362 
	C839.683228,652.164612 842.757446,654.895569 845.243286,660.024048 
	C853.947144,677.980408 863.018921,695.758545 872.101562,713.945312 
z"/>
<path fill="#FDFCFD" opacity="1.000000" stroke="none" 
	d="
M626.013611,654.163452 
	C640.034851,656.224121 652.238342,662.297546 663.278442,670.979065 
	C666.761963,673.718384 666.995605,676.284302 663.830505,679.661011 
	C653.573303,690.604126 653.613647,690.752014 640.851135,684.047424 
	C619.514038,672.838196 599.557373,675.383362 580.058472,689.771973 
	C572.266174,686.474976 565.125549,683.221008 557.984985,679.967041 
	C562.638611,675.649902 567.292236,671.332764 572.627197,667.017822 
	C576.353577,670.232910 579.587463,673.290833 582.387329,676.704773 
	C584.870728,679.732910 587.509644,680.860352 591.061707,678.939453 
	C597.502991,675.456055 604.296814,672.460693 610.237976,668.263062 
	C615.960449,664.219849 620.791077,658.914307 626.013611,654.163452 
z"/>
<path fill="#F4F4F4" opacity="1.000000" stroke="none" 
	d="
M511.379974,750.756348 
	C507.677460,753.161743 504.216400,755.280090 500.174805,757.753784 
	C499.598785,756.117920 498.918152,754.682190 498.586761,753.169922 
	C492.928833,727.353760 487.269653,701.537659 481.782501,675.684998 
	C481.385132,673.812622 482.308441,671.659973 482.803741,669.330078 
	C499.471008,680.908447 508.878204,697.322632 512.973328,716.876587 
	C515.322388,728.093140 514.783386,739.380554 511.379974,750.756348 
z"/>
<path fill="#F4F3F4" opacity="1.000000" stroke="none" 
	d="
M446.741028,782.382446 
	C447.289612,784.771973 447.570587,787.263733 448.437286,789.531677 
	C450.986450,796.202454 450.446289,801.958008 444.106537,806.673828 
	C433.783936,809.474915 423.912018,807.270630 414.232910,804.337524 
	C394.768524,798.439148 380.315369,786.135803 370.007751,768.369507 
	C387.634064,775.018188 405.317871,782.014343 423.004150,789.004089 
	C425.272278,789.900452 427.553619,790.763245 430.746826,791.995972 
	C430.119385,788.603027 429.651093,786.070557 429.598206,783.134155 
	C435.589417,782.614258 441.165222,782.498352 446.741028,782.382446 
z"/>
<path fill="#F5F4F5" opacity="1.000000" stroke="none" 
	d="
M625.600891,654.045288 
	C620.791077,658.914307 615.960449,664.219849 610.237976,668.263062 
	C604.296814,672.460693 597.502991,675.456055 591.061707,678.939453 
	C587.509644,680.860352 584.870728,679.732910 582.387329,676.704773 
	C579.587463,673.290833 576.353577,670.232910 572.946411,666.929749 
	C587.195374,655.870911 603.654358,651.762573 621.716492,653.601990 
	C622.872803,653.719727 624.030884,653.819153 625.600891,654.045288 
z"/>
<path fill="#F4F3F4" opacity="1.000000" stroke="none" 
	d="
M557.677002,680.101929 
	C565.125549,683.221008 572.266174,686.474976 579.736938,689.881592 
	C576.861450,693.883728 573.655762,697.733154 570.186523,701.794495 
	C568.837341,702.330811 567.455017,702.341064 566.719116,703.035889 
	C564.003601,705.600037 561.522217,704.497009 558.566101,703.410522 
	C554.375732,701.870483 549.920776,701.050293 545.201782,699.924805 
	C549.006104,693.363647 553.187561,686.800293 557.677002,680.101929 
z"/>
<path fill="#632182" opacity="1.000000" stroke="none" 
	d="
M748.881348,219.886749 
	C799.603516,207.057571 848.854797,236.101685 860.305969,285.560150 
	C871.810730,335.250366 841.220154,384.290955 791.546204,394.234894 
	C737.930481,404.967957 691.414307,369.070923 683.885986,319.874878 
	C676.588013,272.183563 708.100159,230.742661 748.881348,219.886749 
M805.460999,235.916733 
	C789.856140,229.780640 774.008728,227.398132 757.252808,230.920853 
	C724.368958,237.834274 699.574036,266.006317 697.070007,299.351898 
	C695.120789,325.309662 703.644104,347.409424 723.688904,364.582764 
	C736.453369,375.518707 751.222656,382.017944 767.999451,382.949158 
	C794.421814,384.415802 816.513611,375.300934 833.394653,354.529266 
	C851.615173,332.109283 854.962280,306.872955 846.137268,280.072113 
	C839.456116,259.782288 824.846130,245.954575 805.460999,235.916733 
z"/>
<path fill="#5F1C82" opacity="1.000000" stroke="none" 
	d="
M1121.102295,678.048462 
	C1148.056274,675.716736 1171.614624,697.405334 1175.496704,721.054504 
	C1178.999634,742.394409 1171.429932,760.149292 1153.959473,772.980469 
	C1136.415527,785.865601 1117.620972,786.478821 1098.639526,776.220886 
	C1078.674194,765.431152 1068.256348,744.795105 1071.189575,722.925537 
	C1073.996704,701.996216 1091.753906,683.191162 1113.189209,678.602783 
	C1115.596313,678.087463 1118.141968,678.219238 1121.102295,678.048462 
z"/>
<path fill="#5F1C82" opacity="1.000000" stroke="none" 
	d="
M447.061340,782.219360 
	C441.165222,782.498352 435.589417,782.614258 429.550995,782.741821 
	C420.481689,780.642639 412.357452,777.479187 405.225464,772.054871 
	C372.984131,747.533142 379.092010,702.657776 411.892883,684.105286 
	C444.996796,665.381470 484.124146,688.901428 489.151855,723.269958 
	C490.964508,735.660889 487.685150,746.544739 481.691406,757.692993 
	C476.494537,763.457703 471.612305,768.664124 466.730103,773.870544 
	C460.280609,776.599121 453.831116,779.327698 447.061340,782.219360 
z"/>
<path fill="#F4F3F4" opacity="1.000000" stroke="none" 
	d="
M467.038147,774.050293 
	C471.612305,768.664124 476.494537,763.457703 481.646759,758.045898 
	C483.156342,759.595825 484.122040,761.662842 485.691895,763.042419 
	C489.089294,766.027893 489.483673,768.416138 485.433899,771.165833 
	C482.853638,772.917786 480.570496,775.129639 478.259003,777.249634 
	C475.166107,780.086243 472.406189,780.964050 469.889191,776.557251 
	C469.346558,775.607300 468.209473,774.996826 467.038147,774.050293 
z"/>
<path fill="#FEFDFD" opacity="1.000000" stroke="none" 
	d="
M805.814514,236.061707 
	C824.846130,245.954575 839.456116,259.782288 846.137268,280.072113 
	C854.962280,306.872955 851.615173,332.109283 833.394653,354.529266 
	C816.513611,375.300934 794.421814,384.415802 767.999451,382.949158 
	C751.222656,382.017944 736.453369,375.518707 723.688904,364.582764 
	C703.644104,347.409424 695.120789,325.309662 697.070007,299.351898 
	C699.574036,266.006317 724.368958,237.834274 757.252808,230.920853 
	C774.008728,227.398132 789.856140,229.780640 805.814514,236.061707 
M813.403259,263.088989 
	C799.151855,249.528381 781.721069,245.662521 763.054016,248.385147 
	C731.128235,253.041595 709.228149,286.909332 715.975952,318.581360 
	C722.126831,347.451782 750.013062,368.542236 780.217957,364.656677 
	C803.563782,361.653442 821.115173,348.979095 828.741882,326.288483 
	C836.602112,302.902985 832.016235,281.361969 813.403259,263.088989 
z"/>
<path fill="#5F1C82" opacity="1.000000" stroke="none" 
	d="
M813.672974,263.318665 
	C832.016235,281.361969 836.602112,302.902985 828.741882,326.288483 
	C821.115173,348.979095 803.563782,361.653442 780.217957,364.656677 
	C750.013062,368.542236 722.126831,347.451782 715.975952,318.581360 
	C709.228149,286.909332 731.128235,253.041595 763.054016,248.385147 
	C781.721069,245.662521 799.151855,249.528381 813.672974,263.318665 
z"/>
</svg>