<svg version="1.1" id="Layer_1" xmlns="http://www.w3.org/2000/svg" xmlns:xlink="http://www.w3.org/1999/xlink" x="0px" y="0px"
	 width="100%" viewBox="0 0 656 688" enable-background="new 0 0 656 688" xml:space="preserve">
<path fill="#7c76bb" opacity="1.000000" stroke="none" 
	d="
M456.378387,640.815430 
	C458.494568,650.479370 460.682098,659.706604 462.574524,668.993896 
	C465.189789,681.828674 456.933441,689.529175 443.965668,686.638367 
	C433.538849,684.314026 423.589386,680.461365 413.535583,677.016663 
	C391.643555,669.515991 369.277649,663.561584 347.330322,656.259521 
	C343.155243,654.870361 339.312866,653.004028 336.287964,649.707214 
	C331.432739,644.415588 330.938171,639.767212 335.175812,633.984436 
	C340.722717,626.415161 347.824036,620.266479 354.747162,614.046265 
	C373.441223,597.250366 392.359619,580.703857 411.219910,564.093384 
	C413.463623,562.117310 415.784241,560.186951 418.265869,558.529846 
	C427.806244,552.159241 436.797638,555.223328 440.048767,566.280273 
	C442.203217,573.607544 443.548035,581.173035 445.250824,588.632874 
	C446.027802,592.036621 446.704651,595.466187 447.586761,598.842285 
	C448.815491,603.545044 450.340668,604.196594 454.719055,602.079407 
	C486.509247,586.706848 514.813782,566.582886 539.401001,541.112854 
	C564.566162,515.044006 584.181641,485.441193 598.624390,452.252258 
	C609.656128,426.901733 617.117737,400.588013 620.530640,373.197998 
	C623.289856,351.053589 623.144714,328.898621 621.282715,306.575836 
	C619.395264,283.947662 614.201660,262.156525 607.282104,240.829651 
	C599.920593,218.140610 589.086792,196.881302 576.209229,176.700012 
	C567.301208,162.739624 557.396729,149.547913 545.837158,137.758606 
	C532.341003,123.994156 518.394714,110.774475 503.028870,98.890121 
	C482.995453,83.395691 460.572357,72.531296 437.694336,62.739723 
	C415.675232,53.315765 392.493927,47.014629 368.485718,44.158859 
	C353.750519,42.406109 339.054230,40.897011 324.196228,41.261169 
	C260.029327,42.833847 201.984711,62.180458 150.474426,100.757538 
	C124.465813,120.235901 102.962402,144.007721 84.299339,170.371674 
	C70.079811,190.458557 59.950874,212.745255 51.094593,235.653961 
	C45.065327,251.249969 40.594517,267.371490 37.987892,283.716827 
	C33.530643,311.666901 31.501423,339.846344 35.456944,368.217438 
	C38.267632,388.377197 41.835487,408.305817 48.154663,427.670990 
	C53.956280,445.450043 61.603191,462.422974 70.687706,478.774231 
	C78.548393,492.922699 87.570229,506.269318 97.258583,519.222168 
	C103.182449,527.142090 110.146370,534.136841 117.152428,540.916016 
	C127.642494,551.066223 137.586319,561.781738 149.572174,570.497864 
	C162.527618,579.919128 176.307358,587.908203 189.754089,596.471191 
	C199.352478,602.583557 210.417023,605.661133 220.716019,610.345154 
	C224.281525,611.966736 226.398361,609.697449 227.454849,606.444641 
	C230.230347,597.899292 232.747086,589.265747 235.694901,580.781311 
	C245.042419,553.876953 252.557266,526.400879 261.294373,499.306946 
	C270.643646,470.314606 279.944397,441.306427 289.180023,412.277710 
	C293.065460,400.065216 296.605194,387.742035 300.551300,375.549805 
	C302.285370,370.192047 300.960571,366.142059 297.495361,361.825745 
	C288.740356,350.920349 285.581390,338.540344 289.915344,324.887115 
	C291.131683,321.055359 290.495239,318.178650 287.709717,315.394592 
	C273.691589,301.383942 259.774200,287.272522 245.755814,273.262115 
	C226.802994,254.320053 207.808624,235.419464 188.786621,216.546890 
	C185.393051,213.179977 182.986679,209.183273 181.332092,204.826935 
	C179.432968,199.826736 181.701324,195.546631 185.213928,192.226196 
	C189.254456,188.406723 194.233337,187.334595 199.555145,189.522766 
	C205.118576,191.810257 208.990677,196.294815 213.101562,200.402740 
	C244.453522,231.732071 275.797699,263.069366 307.045258,294.502655 
	C310.484222,297.962067 313.406158,298.704163 318.439117,297.178467 
	C340.540375,290.478607 362.359619,304.276550 368.077698,326.945068 
	C374.196777,351.203247 357.831909,372.808502 333.986786,376.159912 
	C329.696167,376.762939 328.548187,379.398804 327.514252,382.632629 
	C320.977295,403.077911 314.425720,423.518646 307.954346,443.984711 
	C299.274933,471.433746 290.642181,498.897614 282.028931,526.367493 
	C271.725006,559.229370 261.469147,592.106201 251.174316,624.970947 
	C249.939835,628.911926 249.281799,633.005188 246.681198,636.514893 
	C242.529160,642.118225 237.402908,644.227600 230.570038,642.531067 
	C216.273209,638.981201 202.756638,633.414673 189.511337,627.080872 
	C174.027863,619.676819 159.216583,611.073181 145.038681,601.456116 
	C131.800766,592.476685 119.588837,582.074890 107.880333,571.238159 
	C82.128174,547.403381 60.918480,519.919250 45.178963,488.486847 
	C35.647190,469.451508 25.651737,450.543304 20.231831,429.744598 
	C13.003718,402.006897 7.294582,374.150574 6.597424,345.210999 
	C5.539090,301.278778 13.303637,259.231842 29.000172,218.362259 
	C40.691471,187.921280 57.258469,160.526245 77.206879,134.765167 
	C102.983223,101.477943 135.348999,76.601837 171.337463,55.543213 
	C202.680115,37.203102 236.432053,26.000376 271.794739,19.205788 
	C285.992981,16.477736 300.478577,15.604449 314.943573,14.810491 
	C333.261108,13.805072 351.609741,14.425330 369.626038,16.988314 
	C396.789520,20.852556 423.321686,27.479391 449.027924,37.819908 
	C473.379028,47.615288 495.275421,61.136238 516.804871,75.760216 
	C544.419495,94.517540 566.907837,118.238373 586.998962,144.632080 
	C606.250977,169.923492 620.581177,197.771133 631.350342,227.499008 
	C639.305542,249.459152 644.859436,272.126648 647.685730,295.309204 
	C650.183716,315.798096 650.570557,336.366760 649.514465,357.082092 
	C647.815430,390.406189 640.377869,422.454163 628.202087,453.139465 
	C617.606628,479.841797 604.781860,505.557159 586.741882,528.580078 
	C574.040100,544.790344 560.201355,559.727722 545.527649,573.974304 
	C524.440918,594.447144 499.695923,609.820923 474.009857,623.757812 
	C469.916138,625.979065 465.682770,627.954773 461.449738,629.904663 
	C454.701172,633.013184 454.519775,633.286987 456.378387,640.815430 
z"/>
<path fill="#7c76bb" opacity="1.000000" stroke="none" 
	d="
M110.171211,347.371704 
	C106.579330,349.484711 102.921364,349.980316 99.281738,350.046631 
	C90.804535,350.201141 82.321617,350.010559 73.842651,350.105865 
	C59.584148,350.266174 57.724342,336.511566 61.623192,328.461029 
	C63.040977,325.533539 65.607658,324.044220 68.689850,323.479736 
	C81.058205,321.214630 93.466385,320.961029 105.825050,323.384216 
	C111.436211,324.484406 115.453804,330.948761 114.670303,337.224823 
	C114.215721,340.866241 113.301865,344.433075 110.171211,347.371704 
z"/>
<path fill="#7c76bb" opacity="1.000000" stroke="none" 
	d="
M542.815186,335.153381 
	C544.239807,325.871674 546.714722,323.680542 555.792358,322.645447 
	C565.750488,321.509918 575.678101,321.448090 585.599548,322.898804 
	C593.799377,324.097748 596.865601,327.683411 597.227112,336.393463 
	C597.513733,343.300018 593.574402,348.792786 586.312622,349.564362 
	C575.084717,350.757355 563.719238,350.854523 552.494507,349.501587 
	C545.435059,348.650726 543.076233,344.595978 542.815186,335.153381 
z"/>
<path fill="#7c76bb" opacity="1.000000" stroke="none" 
	d="
M341.214478,75.304138 
	C342.873505,87.954460 342.489746,100.260063 341.592590,112.496254 
	C341.097443,119.249535 336.415131,121.996704 328.091736,122.023956 
	C320.494354,122.048836 315.842651,118.969559 315.306000,112.331879 
	C314.382111,100.904305 314.441528,89.400757 315.273193,77.967781 
	C315.722137,71.795822 319.559814,68.503128 325.729279,67.771805 
	C331.467499,67.091583 339.246765,68.305656 341.214478,75.304138 
z"/>
</svg>