<?xml version="1.0" standalone="no"?>
<!DOCTYPE svg PUBLIC "-//W3C//DTD SVG 20010904//EN"
 "http://www.w3.org/TR/2001/REC-SVG-20010904/DTD/svg10.dtd">
<svg version="1.0" xmlns="http://www.w3.org/2000/svg"
 width="597.000000pt" height="597.000000pt" viewBox="0 0 597.000000 597.000000"
 preserveAspectRatio="xMidYMid meet">

<g transform="translate(0.000000,597.000000) scale(0.100000,-0.100000)"
fill="#543631" stroke="none">
<path d="M2765 5500 c-95 -8 -141 -29 -160 -73 -8 -18 -23 -136 -36 -277 -13
-146 -27 -256 -35 -272 -17 -33 -37 -45 -118 -68 -84 -24 -200 -72 -311 -127
-76 -37 -99 -45 -127 -39 -24 4 -89 51 -218 157 -227 186 -221 182 -275 182
-54 0 -79 -18 -224 -158 -131 -127 -247 -264 -256 -304 -9 -44 16 -84 178
-278 75 -89 143 -172 151 -185 29 -40 20 -88 -39 -208 -31 -61 -71 -158 -91
-214 -41 -117 -54 -140 -92 -159 -16 -9 -126 -23 -272 -37 -319 -29 -330 -35
-344 -189 -18 -181 5 -496 39 -548 9 -13 28 -28 42 -34 22 -8 255 -36 454 -54
103 -10 121 -26 158 -142 18 -54 63 -163 101 -243 39 -80 70 -155 70 -167 0
-41 -19 -71 -164 -251 -197 -246 -197 -247 -144 -327 43 -65 254 -282 345
-356 115 -92 111 -93 345 99 233 191 235 192 272 192 16 0 82 -24 145 -54 64
-30 145 -62 181 -71 36 -9 90 -29 120 -43 76 -37 89 -67 101 -229 24 -334 39
-400 100 -430 50 -24 252 -36 413 -24 207 15 248 28 267 80 12 29 49 383 49
459 0 97 30 130 154 172 48 16 149 59 224 95 162 77 191 81 251 32 22 -17 120
-96 217 -175 204 -165 211 -168 291 -103 174 142 403 403 403 460 0 34 -28 73
-184 261 -167 199 -176 213 -176 246 0 16 25 77 54 137 30 59 71 159 91 223
42 129 53 142 139 156 57 9 216 24 376 36 58 4 116 14 128 21 33 18 52 70 52
143 -1 35 4 80 9 101 5 23 6 111 1 222 -9 201 -21 249 -70 272 -14 6 -131 21
-260 33 -129 11 -252 25 -272 30 -51 14 -69 42 -112 167 -20 59 -62 159 -92
220 -29 62 -54 123 -54 135 0 33 29 76 165 243 209 258 212 264 154 346 -42
58 -322 336 -377 373 -50 34 -107 38 -149 11 -36 -24 -167 -131 -258 -211 -94
-83 -142 -114 -176 -114 -15 0 -72 22 -126 49 -54 26 -143 65 -198 86 -158 59
-164 62 -180 97 -9 20 -25 133 -40 279 -13 135 -29 257 -35 270 -22 46 -57 61
-174 75 -118 14 -270 16 -401 4z m465 -1595 c165 -53 280 -125 397 -248 131
-138 210 -312 233 -515 21 -180 -11 -349 -96 -512 -60 -114 -132 -201 -234
-283 -137 -110 -280 -170 -456 -189 -375 -42 -714 135 -903 473 -119 213 -135
524 -38 749 58 133 97 190 207 300 90 91 119 112 205 157 166 85 249 103 455
99 125 -3 157 -7 230 -31z"/>
<path d="M2835 3805 c-290 -54 -507 -248 -596 -535 -20 -64 -24 -96 -24 -220
0 -124 3 -156 23 -220 78 -247 254 -428 497 -512 141 -48 340 -49 482 -2 245
82 446 299 509 549 22 88 22 263 0 362 -52 240 -241 455 -474 540 -136 50
-281 64 -417 38z m306 -191 c189 -55 355 -227 404 -419 19 -76 19 -224 0 -299
-65 -250 -308 -436 -570 -436 -264 0 -504 185 -570 441 -23 87 -16 260 14 342
43 120 149 248 261 314 90 53 165 72 291 72 77 1 133 -4 170 -15z"/>
</g>
</svg>
